<svg width="22" height="24" viewBox="0 0 22 24" fill="none" xmlns="http://www.w3.org/2000/svg">
<path d="M2.85887 18.3822L2.06119 17.7791L2.06119 17.7791L2.85887 18.3822ZM4.05819 14.9654L3.05819 14.9532V14.9654H4.05819ZM4.08337 12.8996L5.08337 12.9118V12.8996H4.08337ZM19.1475 18.3988L19.9571 17.8118L19.9571 17.8118L19.1475 18.3988ZM17.9933 14.9654L16.9933 14.9526V14.9654H17.9933ZM18.0185 13.002L19.0185 13.0148V13.002H18.0185ZM3.65656 18.9853C4.35542 18.0609 5.05819 16.6703 5.05819 14.9654H3.05819C3.05819 16.1119 2.58289 17.0891 2.06119 17.7791L3.65656 18.9853ZM5.05812 14.9776L5.08329 12.9118L3.08344 12.8874L3.05827 14.9532L5.05812 14.9776ZM19.9571 17.8118C19.4577 17.1229 18.9933 16.1338 18.9933 14.9654H16.9933C16.9933 16.668 17.6664 18.0596 18.3379 18.9858L19.9571 17.8118ZM18.9933 14.9782L19.0184 13.0148L17.0186 12.9892L16.9934 14.9526L18.9933 14.9782ZM19.0185 13.002C19.0185 8.55948 15.433 4.94999 11 4.94999V6.94999C14.3195 6.94999 17.0185 9.65506 17.0185 13.002H19.0185ZM18.7275 20.3562C19.4677 20.3562 19.9294 19.8345 20.1141 19.3984C20.2983 18.9637 20.3375 18.3365 19.9571 17.8118L18.3379 18.9858C18.2104 18.8098 18.2543 18.6613 18.2726 18.6182C18.2915 18.5736 18.4167 18.3562 18.7275 18.3562V20.3562ZM5.08337 12.8996C5.08337 9.60923 7.73682 6.94999 11 6.94999V4.94999C6.62329 4.94999 3.08337 8.51365 3.08337 12.8996H5.08337ZM3.2735 18.3562C3.59135 18.3562 3.71367 18.5811 3.72948 18.6196C3.74498 18.6573 3.79085 18.8077 3.65656 18.9853L2.06119 17.7791C1.6639 18.3046 1.69968 18.942 1.87955 19.3797C2.05972 19.8182 2.52086 20.3562 3.2735 20.3562V18.3562ZM18.7275 18.3562H3.2735V20.3562H18.7275V18.3562ZM13.3 19.3562C13.3 20.4528 12.332 21.45 11 21.45V23.45C13.3131 23.45 15.3 21.677 15.3 19.3562H13.3ZM11 21.45C9.66798 21.45 8.7 20.4528 8.7 19.3562H6.7C6.7 21.677 8.68694 23.45 11 23.45V21.45ZM12.2 3.74999C12.2 4.41273 11.6627 4.94999 11 4.94999V6.94999C12.7673 6.94999 14.2 5.5173 14.2 3.74999H12.2ZM11 4.94999C10.3373 4.94999 9.8 4.41273 9.8 3.74999H7.8C7.8 5.5173 9.23269 6.94999 11 6.94999V4.94999ZM9.8 3.74999C9.8 3.08725 10.3373 2.54999 11 2.54999V0.549988C9.23269 0.549988 7.8 1.98268 7.8 3.74999H9.8ZM11 2.54999C11.6627 2.54999 12.2 3.08725 12.2 3.74999H14.2C14.2 1.98268 12.7673 0.549988 11 0.549988V2.54999Z" fill="#40ACFF"/>
</svg>
