<svg width="24" height="24" viewBox="0 0 24 24" fill="none" xmlns="http://www.w3.org/2000/svg">
<path d="M8.40002 8.0193H13.7847C14.3203 8.0193 14.8339 8.23204 15.2126 8.61073C15.5913 8.98941 15.804 9.50302 15.804 10.0386C15.804 10.5741 15.5913 11.0877 15.2126 11.4664C14.8339 11.8451 14.3203 12.0578 13.7847 12.0578M13.7847 12.0578C14.3203 12.0578 14.8339 12.2706 15.2126 12.6493C15.5913 13.028 15.804 13.5416 15.804 14.0771C15.804 14.6127 15.5913 15.1263 15.2126 15.505C14.8339 15.8836 14.3203 16.0964 13.7847 16.0964H8.40002M13.7847 12.0578H9.7462M9.7462 8.0193V16.0964M10.4193 6.00002V8.0193M13.1117 6.00002V8.0193M10.4193 16.0964V18.1157M13.1117 16.0964V18.1157M21.6 12C21.6 17.302 17.302 21.6 12 21.6C6.69809 21.6 2.40002 17.302 2.40002 12C2.40002 6.69809 6.69809 2.40002 12 2.40002C17.302 2.40002 21.6 6.69809 21.6 12Z" stroke="black" stroke-width="2" stroke-linecap="round" stroke-linejoin="round"/>
</svg>
