<svg width="18" height="18" viewBox="0 0 18 18" fill="none" xmlns="http://www.w3.org/2000/svg">
<path d="M6.35016 9.66183L5.70372 8.89887L5.70371 8.89888L6.35016 9.66183ZM6.38977 9.6239L5.67728 8.92221L5.6765 8.92301L6.38977 9.6239ZM4.72348 11.0401L4.07703 10.2772L4.07702 10.2772L4.72348 11.0401ZM4.63437 11.1339L5.45518 11.7051L5.45518 11.7051L4.63437 11.1339ZM13.2694 9.71942L12.5769 10.4408V10.4408L13.2694 9.71942ZM11.8811 8.38662L11.1885 9.10801L11.1885 9.10801L11.8811 8.38662ZM11.3655 8.383L10.6832 7.65194L10.6806 7.65432L11.3655 8.383ZM8.79394 10.7999L9.47626 11.5309L9.47879 11.5286L8.79394 10.7999ZM8.27044 10.7884L7.55448 11.4866L7.55591 11.488L8.27044 10.7884ZM8.26369 10.7815L7.54704 11.4789L7.54772 11.4796L8.26369 10.7815ZM8.22694 10.7458L8.88167 9.98997L8.88165 9.98996L8.22694 10.7458ZM6.9742 9.66076L7.62891 8.90488L7.62891 8.90488L6.9742 9.66076ZM6.9373 9.62492L7.65419 8.92773L7.65351 8.92704L6.9373 9.62492ZM6.9307 9.61814L7.64691 8.92026L7.64556 8.91888L6.9307 9.61814ZM6.39688 9.61668L5.68582 8.91355L5.6844 8.91499L6.39688 9.61668ZM12.2396 4.94985V3.94985C11.6874 3.94985 11.2396 4.39757 11.2396 4.94985H12.2396ZM12.497 4.94985H13.497C13.497 4.39757 13.0493 3.94985 12.497 3.94985V4.94985ZM12.497 5.16782V6.16782C13.0493 6.16782 13.497 5.72011 13.497 5.16782H12.497ZM12.2396 5.16782H11.2396C11.2396 5.72011 11.6874 6.16782 12.2396 6.16782V5.16782ZM0.799988 4.5V13.5H2.79999V4.5H0.799988ZM4.49999 17.2H13.5V15.2H4.49999V17.2ZM17.2 13.5V4.5H15.2V13.5H17.2ZM13.5 0.800003H4.49999V2.8H13.5V0.800003ZM17.2 4.5C17.2 2.45655 15.5434 0.800003 13.5 0.800003V2.8C14.4389 2.8 15.2 3.56112 15.2 4.5H17.2ZM13.5 17.2C15.5434 17.2 17.2 15.5435 17.2 13.5H15.2C15.2 14.4389 14.4389 15.2 13.5 15.2V17.2ZM0.799988 13.5C0.799988 15.5435 2.45653 17.2 4.49999 17.2V15.2C3.5611 15.2 2.79999 14.4389 2.79999 13.5H0.799988ZM2.79999 4.5C2.79999 3.56112 3.5611 2.8 4.49999 2.8V0.800003C2.45653 0.800003 0.799988 2.45655 0.799988 4.5H2.79999ZM6.9966 10.4248C7.05119 10.3785 7.09561 10.3324 7.10303 10.3248L5.6765 8.92301C5.67296 8.92661 5.67175 8.92784 5.67087 8.92873C5.6702 8.9294 5.67121 8.92837 5.67326 8.92638C5.67714 8.92261 5.68794 8.91224 5.70372 8.89887L6.9966 10.4248ZM5.36993 11.8031L6.99661 10.4248L5.70371 8.89888L4.07703 10.2772L5.36993 11.8031ZM5.45518 11.7051C5.43071 11.7403 5.40816 11.7655 5.39343 11.7806C5.38597 11.7883 5.37996 11.794 5.37608 11.7976C5.37411 11.7994 5.37257 11.8008 5.37156 11.8017C5.37054 11.8026 5.36997 11.803 5.36994 11.8031L4.07702 10.2772C4.01528 10.3295 3.90971 10.4246 3.81356 10.5627L5.45518 11.7051ZM5.49999 11.5623C5.49999 11.6136 5.48425 11.6634 5.45518 11.7051L3.81356 10.5627C3.61011 10.8551 3.49999 11.2037 3.49999 11.5623H5.49999ZM5.49999 13.125V11.5623H3.49999V13.125H5.49999ZM4.87499 12.5C5.22016 12.5 5.49999 12.7798 5.49999 13.125H3.49999C3.49999 13.8844 4.1156 14.5 4.87499 14.5V12.5ZM13.125 12.5H4.87499V14.5H13.125V12.5ZM12.5 13.125C12.5 12.7798 12.7798 12.5 13.125 12.5V14.5C13.8844 14.5 14.5 13.8844 14.5 13.125H12.5ZM12.5 10.2605V13.125H14.5V10.2605H12.5ZM12.5769 10.4408C12.5277 10.3937 12.5 10.3285 12.5 10.2605H14.5C14.5 9.78394 14.3057 9.32803 13.9619 8.99803L12.5769 10.4408ZM11.1885 9.10801L12.5769 10.4408L13.9619 8.99803L12.5736 7.66524L11.1885 9.10801ZM12.0478 9.11405C11.8052 9.34049 11.4279 9.33783 11.1885 9.10801L12.5736 7.66524C12.0469 7.15963 11.2169 7.15379 10.6832 7.65194L12.0478 9.11405ZM9.47879 11.5286L12.0503 9.11168L10.6806 7.65432L8.10909 10.0712L9.47879 11.5286ZM7.55591 11.488C8.07349 12.0167 8.92602 12.0445 9.47626 11.5309L8.11162 10.0688C8.36196 9.83517 8.74925 9.84808 8.98498 10.0888L7.55591 11.488ZM7.54772 11.4796L7.55448 11.4866L8.98641 10.0903L8.97965 10.0834L7.54772 11.4796ZM7.57222 11.5017C7.55761 11.489 7.54759 11.4793 7.54402 11.4758C7.54212 11.4739 7.54119 11.4729 7.5418 11.4736C7.54263 11.4744 7.54376 11.4756 7.54704 11.4789L8.98033 10.0841C8.97345 10.077 8.93215 10.0337 8.88167 9.98997L7.57222 11.5017ZM6.31949 10.4166L7.57223 11.5017L8.88165 9.98996L7.62891 8.90488L6.31949 10.4166ZM6.22042 10.3221C6.22735 10.3292 6.26879 10.3727 6.31949 10.4166L7.62891 8.90488C7.64356 8.91757 7.65361 8.92735 7.65722 8.93091C7.65913 8.93279 7.66006 8.93375 7.65945 8.93312C7.65862 8.93228 7.65749 8.93112 7.65419 8.92773L6.22042 10.3221ZM6.21449 10.316L6.22109 10.3228L7.65351 8.92704L7.64691 8.92026L6.21449 10.316ZM7.10794 10.3198C6.86188 10.5687 6.46088 10.5679 6.21584 10.3174L7.64556 8.91888C7.10861 8.36995 6.22505 8.36823 5.68582 8.91355L7.10794 10.3198ZM7.10225 10.3256L7.10936 10.3184L5.6844 8.91499L5.67728 8.92221L7.10225 10.3256ZM12.2396 5.94985H12.497V3.94985H12.2396V5.94985ZM11.497 4.94985V5.16782H13.497V4.94985H11.497ZM12.497 4.16782H12.2396V6.16782H12.497V4.16782ZM13.2396 5.16782V4.94985H11.2396V5.16782H13.2396Z" fill="#558491"/>
</svg>
