<svg width="18" height="18" viewBox="0 0 18 18" fill="none" xmlns="http://www.w3.org/2000/svg">
<path d="M14.9214 9.60687C15.1061 9.08638 14.8339 8.51472 14.3134 8.33003C13.7929 8.14534 13.2213 8.41756 13.0366 8.93805L14.9214 9.60687ZM12.4539 13.5704L13.3963 13.9048L12.4539 13.5704ZM11.4253 14.461L11.6214 15.4416V15.4416L11.4253 14.461ZM2.4469 16.2567L1.46277 16.0792C1.40403 16.405 1.51028 16.7387 1.74654 16.9705C1.98279 17.2023 2.31845 17.3022 2.64302 17.2373L2.4469 16.2567ZM4.08537 7.17064L5.06949 7.3481L4.08537 7.17064ZM5.03062 6.09975L5.32889 7.05423L5.32889 7.05423L5.03062 6.09975ZM9.7294 5.67907C10.2565 5.51433 10.5503 4.95345 10.3856 4.42631C10.2209 3.89917 9.66 3.60537 9.13285 3.77011L9.7294 5.67907ZM1.90222 15.3872C1.51169 15.7777 1.51169 16.4108 1.90222 16.8014C2.29274 17.1919 2.92591 17.1919 3.31643 16.8014L1.90222 15.3872ZM7.2146 12.9032C7.60513 12.5127 7.60513 11.8795 7.2146 11.489C6.82408 11.0985 6.19092 11.0985 5.80039 11.489L7.2146 12.9032ZM16.5778 6.02398L17.2849 5.31687L16.5778 6.02398ZM16.5778 7.32337L15.8707 6.61626L16.5778 7.32337ZM11.3802 2.1258L10.6731 1.4187V1.4187L11.3802 2.1258ZM12.6796 2.1258L11.9725 2.83291V2.83291L12.6796 2.1258ZM9.75598 5.04943L10.4631 4.34233L9.75598 5.04943ZM9.75598 3.75004L10.4631 4.45715L9.75598 3.75004ZM13.6542 8.94761L12.947 9.65472L13.6542 8.94761ZM14.9535 8.94761L15.6606 9.65472L14.9535 8.94761ZM13.0366 8.93805L11.5115 13.236L13.3963 13.9048L14.9214 9.60687L13.0366 8.93805ZM11.2292 13.4804L2.25078 15.2761L2.64302 17.2373L11.6214 15.4416L11.2292 13.4804ZM3.43103 16.4342L5.06949 7.3481L3.10124 6.99317L1.46277 16.0792L3.43103 16.4342ZM5.32889 7.05423L9.7294 5.67907L9.13285 3.77011L4.73234 5.14527L5.32889 7.05423ZM5.06949 7.3481C5.09449 7.20948 5.19445 7.09624 5.32889 7.05423L4.73234 5.14527C3.88696 5.40945 3.25842 6.12153 3.10124 6.99317L5.06949 7.3481ZM11.5115 13.236C11.467 13.3615 11.3598 13.4543 11.2292 13.4804L11.6214 15.4416C12.4423 15.2774 13.1164 14.6938 13.3963 13.9048L11.5115 13.236ZM3.31643 16.8014L7.2146 12.9032L5.80039 11.489L1.90222 15.3872L3.31643 16.8014ZM14.3613 8.2405L10.4631 4.34233L9.04887 5.75654L12.947 9.65472L14.3613 8.2405ZM10.4631 4.45715L12.0873 2.83291L10.6731 1.4187L9.04887 3.04294L10.4631 4.45715ZM11.9725 2.83291L15.8707 6.73108L17.2849 5.31687L13.3867 1.4187L11.9725 2.83291ZM15.8707 6.61626L14.2464 8.2405L15.6606 9.65472L17.2849 8.03047L15.8707 6.61626ZM15.8707 6.73108C15.839 6.69938 15.839 6.64797 15.8707 6.61626L17.2849 8.03047C18.0342 7.28113 18.0342 6.06621 17.2849 5.31687L15.8707 6.73108ZM12.0873 2.83291C12.0556 2.86462 12.0042 2.86462 11.9725 2.83291L13.3867 1.4187C12.6374 0.669354 11.4224 0.669354 10.6731 1.4187L12.0873 2.83291ZM10.4631 4.34233C10.4948 4.37403 10.4948 4.42544 10.4631 4.45715L9.04887 3.04294C8.29953 3.79228 8.29953 5.0072 9.04887 5.75654L10.4631 4.34233ZM12.947 9.65472C13.6964 10.4041 14.9113 10.4041 15.6606 9.65472L14.2464 8.2405C14.2781 8.20879 14.3296 8.20879 14.3613 8.2405L12.947 9.65472ZM7.53945 9.97956C7.86656 9.65245 8.39691 9.65245 8.72402 9.97956L10.1382 8.56535C9.03008 7.45719 7.2334 7.45719 6.12524 8.56535L7.53945 9.97956ZM8.72402 9.97956C9.05113 10.3067 9.05113 10.837 8.72402 11.1641L10.1382 12.5783C11.2464 11.4702 11.2464 9.67351 10.1382 8.56535L8.72402 9.97956ZM8.72402 11.1641C8.39691 11.4912 7.86656 11.4912 7.53945 11.1641L6.12524 12.5783C7.2334 13.6865 9.03008 13.6865 10.1382 12.5783L8.72402 11.1641ZM7.53945 11.1641C7.21234 10.837 7.21234 10.3067 7.53945 9.97956L6.12524 8.56535C5.01708 9.67351 5.01708 11.4702 6.12524 12.5783L7.53945 11.1641Z" fill="#558491"/>
</svg>
