<svg width="24" height="24" viewBox="0 0 24 24" fill="none" xmlns="http://www.w3.org/2000/svg">
<path d="M20.4364 19.0226L21.1372 19.7361C21.219 19.6557 21.2864 19.5618 21.3364 19.4586L20.4364 19.0226ZM18.9524 20.5366L19.6821 21.2203C19.693 21.2087 19.7036 21.1968 19.714 21.1847L18.9524 20.5366ZM16.9643 21.2794L17.0307 20.2816L17.028 20.2814L16.9643 21.2794ZM13.2895 20.1792L12.8545 21.0797L12.8588 21.0817L13.2895 20.1792ZM6.33576 14.7442L5.56679 15.3835L5.56985 15.3871L6.33576 14.7442ZM2.94368 9.10698L3.88128 8.75927L3.88024 8.75647L2.94368 9.10698ZM2.41602 6.16378L1.41966 6.07845L1.41938 6.08192L2.41602 6.16378ZM3.06617 4.76741L3.77256 5.47524L3.77256 5.47524L3.06617 4.76741ZM4.6727 3.16416L3.98901 2.43439C3.98133 2.44159 3.97376 2.4489 3.96632 2.45634L4.6727 3.16416ZM6.07664 3.15946L5.37026 3.86729L6.07664 3.15946ZM6.09078 3.17357L5.38439 3.8814C5.39239 3.88938 5.40052 3.89722 5.40878 3.90492L6.09078 3.17357ZM6.9388 4.01515L6.22109 4.7115L6.22127 4.71168L6.9388 4.01515ZM7.38636 4.47121L6.66918 5.16809C6.67275 5.17177 6.67635 5.17542 6.67998 5.17904L7.38636 4.47121ZM8.67253 5.75474L7.96614 6.46257L8.67253 5.75474ZM8.67253 7.21224L9.37891 7.92007L8.67253 7.21224ZM8.26736 7.61657L7.5735 6.89646C7.56647 6.90324 7.55953 6.91012 7.5527 6.9171L8.26736 7.61657ZM7.77262 8.07739L7.10583 7.33215C7.0923 7.34426 7.07909 7.35673 7.06624 7.36956L7.77262 8.07739ZM7.74906 8.1009L8.45545 8.80873C8.53158 8.73276 8.59495 8.645 8.64313 8.54885L7.74906 8.1009ZM7.50408 9.16816L6.55068 9.46986C6.55228 9.47491 6.55391 9.47995 6.55559 9.48497L7.50408 9.16816ZM7.51822 9.21048L6.56973 9.52729C6.5771 9.54937 6.58525 9.57119 6.59415 9.5927L7.51822 9.21048ZM9.03994 11.6882L8.25494 12.3077C8.2794 12.3387 8.30567 12.3682 8.33361 12.3961L9.03994 11.6882ZM9.04465 11.6929L9.82041 11.0619C9.79861 11.0351 9.77544 11.0094 9.75099 10.985L9.04465 11.6929ZM13.2282 15.4918L13.763 14.6468L13.7619 14.6461L13.2282 15.4918ZM13.8077 15.8068L13.3612 16.7016L13.8077 15.8068ZM14.2741 16.056L13.7475 16.9061C13.7735 16.9222 13.8003 16.9371 13.8276 16.9508L14.2741 16.056ZM14.3306 16.0889L13.8842 16.9837L14.3306 16.0889ZM15.5132 15.882L16.2195 16.5899L15.5132 15.882ZM16.4366 14.9605L15.7302 14.2526L16.4366 14.9605ZM17.8264 14.9511L17.0882 15.6256C17.0985 15.6369 17.1092 15.648 17.1201 15.6589L17.8264 14.9511ZM17.8359 14.9605L18.5422 14.2526V14.2526L17.8359 14.9605ZM20.4317 17.551L19.7253 18.2589L19.7288 18.2623L20.4317 17.551ZM20.8509 9.96898C21.4032 9.96898 21.8509 9.52126 21.8509 8.96898C21.8509 8.41669 21.4032 7.96898 20.8509 7.96898V9.96898ZM15.347 8.96898L14.347 8.96949C14.3473 9.52157 14.7949 9.96897 15.347 9.96898V8.96898ZM16.3445 4.10493C16.3442 3.55265 15.8963 3.10516 15.344 3.10545C14.7917 3.10573 14.3442 3.55367 14.3445 4.10596L16.3445 4.10493ZM22.3071 3.42305C22.6977 3.03252 22.6977 2.39936 22.3071 2.00884C21.9166 1.61831 21.2834 1.61831 20.8929 2.00884L22.3071 3.42305ZM20.4364 19.0226C19.7357 18.3092 19.7357 18.3092 19.7357 18.3092C19.7357 18.3093 19.7357 18.3093 19.7356 18.3093C19.7356 18.3093 19.7355 18.3094 19.7354 18.3095C19.7353 18.3097 19.735 18.3099 19.7347 18.3102C19.7341 18.3108 19.7332 18.3117 19.732 18.3129C19.7297 18.3152 19.7262 18.3186 19.7217 18.323C19.7127 18.3319 19.6995 18.3448 19.6827 18.3614C19.6491 18.3945 19.6009 18.4421 19.5422 18.5002C19.4248 18.6163 19.265 18.7751 19.0957 18.9449C18.7726 19.2691 18.3684 19.6798 18.1909 19.8884L19.714 21.1847C19.8285 21.0501 20.1664 20.7038 20.5122 20.3569C20.6774 20.1911 20.8338 20.0358 20.9491 19.9217C21.0067 19.8647 21.0539 19.8181 21.0866 19.7859C21.1029 19.7698 21.1157 19.7572 21.1243 19.7488C21.1286 19.7445 21.1318 19.7413 21.134 19.7392C21.1351 19.7381 21.1359 19.7373 21.1364 19.7368C21.1367 19.7365 21.1369 19.7363 21.137 19.7362C21.1371 19.7362 21.1371 19.7361 21.1371 19.7361C21.1372 19.7361 21.1372 19.7361 21.1372 19.7361C21.1372 19.7361 21.1372 19.7361 20.4364 19.0226ZM18.2227 19.8528C17.9443 20.1499 17.6518 20.2841 17.181 20.2841V22.2841C18.1801 22.2841 19.0089 21.9387 19.6821 21.2203L18.2227 19.8528ZM17.181 20.2841C17.1038 20.2841 17.0623 20.2837 17.0307 20.2816L16.8979 22.2772C17.0076 22.2845 17.1169 22.2841 17.181 22.2841V20.2841ZM17.028 20.2814C15.8292 20.2049 14.6732 19.7316 13.7203 19.2768L12.8588 21.0817C13.8563 21.5578 15.3009 22.1753 16.9006 22.2774L17.028 20.2814ZM13.7245 19.2788C11.1878 18.0533 8.95838 16.3131 7.10168 14.1013L5.56985 15.3871C7.60461 17.8111 10.0582 19.7287 12.8545 21.0797L13.7245 19.2788ZM7.10472 14.1049C5.55483 12.2407 4.54565 10.5507 3.88128 8.75927L2.00608 9.4547C2.7645 11.4997 3.90364 13.383 5.5668 15.3835L7.10472 14.1049ZM3.88024 8.75647C3.47372 7.67026 3.35799 6.91138 3.41267 6.24564L1.41938 6.08192C1.33272 7.13697 1.53736 8.20231 2.00712 9.4575L3.88024 8.75647ZM3.41238 6.24911C3.43938 5.93379 3.54896 5.69838 3.77256 5.47524L2.35979 4.05958C1.80132 4.6169 1.48689 5.2936 1.41967 6.07845L3.41238 6.24911ZM3.77256 5.47524L5.37908 3.87199L3.96632 2.45634L2.35979 4.05958L3.77256 5.47524ZM5.35639 3.89394C5.41063 3.84312 5.4443 3.82507 5.4523 3.82131C5.45812 3.81858 5.43494 3.83035 5.3888 3.83035V1.83035C4.81194 1.83035 4.33448 2.11074 3.98901 2.43439L5.35639 3.89394ZM5.3888 3.83035C5.36163 3.83035 5.33949 3.82613 5.32469 3.82189C5.31069 3.81788 5.30493 3.81436 5.30753 3.81577C5.31025 3.81726 5.31812 3.82198 5.33042 3.83162C5.34261 3.84118 5.35613 3.8532 5.37026 3.86729L6.78303 2.45163C6.56981 2.23886 6.08613 1.83035 5.3888 1.83035V3.83035ZM5.37026 3.86729C5.37261 3.86964 5.37496 3.87198 5.37732 3.87434C5.37967 3.87669 5.38203 3.87904 5.38439 3.8814L6.79716 2.46574C6.79481 2.46339 6.79246 2.46105 6.7901 2.45869C6.78775 2.45634 6.78539 2.45399 6.78303 2.45163L5.37026 3.86729ZM5.40878 3.90492C5.67685 4.1549 5.93561 4.41726 6.22109 4.7115L7.6565 3.31881C7.36722 3.02065 7.07948 2.72822 6.77278 2.44222L5.40878 3.90492ZM6.22127 4.71168C6.29756 4.79028 6.37458 4.86835 6.44892 4.94371C6.52418 5.01999 6.59688 5.09369 6.66918 5.16809L8.10355 3.77433C8.02509 3.69358 7.94703 3.61447 7.8727 3.53913C7.79746 3.46286 7.72608 3.39048 7.65633 3.31862L6.22127 4.71168ZM6.67998 5.17904L7.96614 6.46257L9.37891 5.04691L8.09275 3.76338L6.67998 5.17904ZM7.96614 6.46257C8.00165 6.49801 8.02587 6.52631 8.04182 6.54719C8.05774 6.56802 8.0638 6.57933 8.06463 6.58093C8.06527 6.58217 8.06054 6.57326 8.05577 6.55487C8.05085 6.53592 8.04707 6.51144 8.04707 6.48349C8.04707 6.45554 8.05085 6.43106 8.05577 6.41211C8.06054 6.39372 8.06527 6.38481 8.06463 6.38606C8.0638 6.38766 8.05774 6.39897 8.04182 6.41979C8.02587 6.44067 8.00165 6.46897 7.96614 6.50441L9.37891 7.92007C9.72358 7.57611 10.0471 7.09637 10.0471 6.48349C10.0471 5.87062 9.72358 5.39088 9.37891 5.04691L7.96614 6.46257ZM7.96614 6.50441C7.81198 6.65826 7.70275 6.77193 7.5735 6.89646L8.96122 8.33669C9.10523 8.19793 9.25982 8.03891 9.37891 7.92007L7.96614 6.50441ZM7.5527 6.9171C7.44853 7.02354 7.40078 7.07279 7.36734 7.10683C7.32862 7.14625 7.35454 7.11786 7.39169 7.08743C7.39768 7.08253 7.41587 7.06826 7.3895 7.08886C7.3732 7.10158 7.35369 7.11715 7.32825 7.13828C7.28011 7.17826 7.21245 7.23675 7.10583 7.33215L8.43941 8.82264C8.53773 8.73467 8.58491 8.69442 8.60613 8.67679C8.61537 8.66912 8.61916 8.66617 8.62037 8.66523C8.62437 8.66211 8.62124 8.66456 8.62975 8.65795C8.63506 8.65383 8.64598 8.64533 8.65889 8.63475C8.71903 8.5855 8.76705 8.53593 8.79415 8.50834C8.82653 8.47538 8.88832 8.41178 8.98202 8.31605L7.5527 6.9171ZM7.06624 7.36956C7.09301 7.34285 7.1153 7.32397 7.12381 7.31686C7.1271 7.3141 7.13086 7.31102 7.12736 7.3139C7.1259 7.3151 7.11822 7.32139 7.10908 7.32921C7.07676 7.35686 6.94883 7.46569 6.855 7.65296L8.64313 8.54885C8.55401 8.72671 8.43315 8.82849 8.40908 8.84908C8.4052 8.85239 8.40209 8.855 8.4002 8.85657C8.39923 8.85738 8.39846 8.85802 8.39797 8.85842C8.3975 8.85881 8.39718 8.85907 8.39718 8.85907C8.39587 8.86015 8.40187 8.85524 8.40745 8.85056C8.42052 8.83963 8.44753 8.81664 8.47901 8.78522L7.06624 7.36956ZM7.04268 7.39307C6.68941 7.74562 6.49816 8.15093 6.4495 8.57044C6.40398 8.96281 6.49355 9.28933 6.55068 9.46986L8.45749 8.86647C8.4443 8.82481 8.4395 8.80285 8.43762 8.79082C8.43599 8.78039 8.43795 8.7856 8.43618 8.80088C8.4353 8.80847 8.43367 8.81693 8.43117 8.82551C8.42865 8.83415 8.42591 8.84061 8.424 8.84446C8.41958 8.85339 8.42367 8.84044 8.45545 8.80873L7.04268 7.39307ZM6.55559 9.48497C6.55795 9.49203 6.56031 9.49909 6.56266 9.50615C6.56502 9.5132 6.56737 9.52024 6.56973 9.52729L8.4667 8.89367C8.46435 8.88661 8.46199 8.87955 8.45963 8.8725C8.45728 8.86544 8.45492 8.8584 8.45257 8.85135L6.55559 9.48497ZM6.59415 9.5927C6.974 10.511 7.50095 11.3523 8.25494 12.3077L9.82494 11.0687C9.14672 10.2093 8.73143 9.52728 8.44228 8.82825L6.59415 9.5927ZM8.33361 12.3961L8.33832 12.4008L9.75099 10.985L9.74627 10.9803L8.33361 12.3961ZM8.26889 12.3239C9.62718 13.9938 11.0773 15.3169 12.6945 16.3375L13.7619 14.6461C12.3545 13.7579 11.0627 12.5891 9.82041 11.0619L8.26889 12.3239ZM12.6935 16.3368C12.9361 16.4904 13.1787 16.6105 13.3612 16.7016L14.2542 14.912C14.0598 14.815 13.9067 14.7377 13.763 14.6468L12.6935 16.3368ZM13.3612 16.7016C13.5416 16.7916 13.6576 16.8504 13.7475 16.9061L14.8007 15.2059C14.6174 15.0923 14.413 14.9913 14.2542 14.912L13.3612 16.7016ZM13.8276 16.9508C13.8036 16.9388 13.786 16.9286 13.7785 16.9241C13.7717 16.9201 13.7667 16.9169 13.7732 16.9209C13.7762 16.9228 13.7906 16.9319 13.8067 16.9414C13.8237 16.9515 13.8507 16.967 13.8842 16.9837L14.7771 15.1941C14.8012 15.2061 14.8187 15.2163 14.8263 15.2208C14.833 15.2248 14.838 15.228 14.8316 15.224C14.8286 15.2221 14.8142 15.2131 14.798 15.2035C14.781 15.1934 14.7541 15.1779 14.7206 15.1612L13.8276 16.9508ZM13.8842 16.9837C14.1642 17.1234 14.4669 17.2065 14.7971 17.2065V15.2065C14.7987 15.2065 14.8013 15.2066 14.8042 15.2069C14.8071 15.2073 14.809 15.2077 14.8094 15.2078C14.8107 15.2082 14.8008 15.2059 14.7771 15.1941L13.8842 16.9837ZM14.7971 17.2065C15.6223 17.2065 16.1217 16.6875 16.2195 16.5899L14.8068 15.1742C14.7893 15.1917 14.7833 15.1973 14.7762 15.2033C14.7692 15.2092 14.7645 15.2124 14.7623 15.2137C14.7604 15.2148 14.7633 15.2128 14.7708 15.2105C14.7746 15.2094 14.7791 15.2083 14.7841 15.2075C14.7892 15.2067 14.7936 15.2065 14.7971 15.2065V17.2065ZM16.2195 16.5899L17.143 15.6683L15.7302 14.2526L14.8068 15.1742L16.2195 16.5899ZM17.143 15.6683C17.1609 15.6504 17.1789 15.6343 17.1959 15.6207C17.2131 15.6071 17.2257 15.599 17.2328 15.595C17.24 15.5909 17.2368 15.5937 17.2234 15.5977C17.209 15.6021 17.183 15.6078 17.148 15.6078V13.6078C16.4368 13.6078 15.9354 14.0479 15.7302 14.2526L17.143 15.6683ZM17.148 15.6078C17.1153 15.6078 17.0887 15.6026 17.0704 15.5971C17.0615 15.5945 17.055 15.5919 17.0509 15.5901C17.0468 15.5883 17.0448 15.5871 17.0447 15.5871C17.0446 15.5871 17.0461 15.5879 17.0489 15.5899C17.0517 15.5918 17.0554 15.5947 17.0599 15.5984C17.0692 15.6061 17.079 15.6156 17.0882 15.6256L18.5647 14.2766C18.3448 14.0358 17.8558 13.6078 17.148 13.6078V15.6078ZM17.1201 15.6589C17.1225 15.6613 17.1237 15.6625 17.1249 15.6637C17.126 15.6649 17.1272 15.666 17.1295 15.6683L18.5422 14.2526C18.5398 14.2502 18.5386 14.249 18.5374 14.2478C18.5363 14.2467 18.5351 14.2455 18.5328 14.2432L17.1201 15.6589ZM17.1295 15.6683L19.7254 18.2589L21.1381 16.8432L18.5422 14.2526L17.1295 15.6683ZM19.7288 18.2623C19.658 18.1923 19.647 18.1232 19.6475 18.1263C19.6492 18.1385 19.6515 18.1877 19.6342 18.277C19.618 18.361 19.5916 18.4447 19.567 18.5108C19.5552 18.5424 19.5451 18.5665 19.539 18.5806C19.536 18.5876 19.534 18.5918 19.5335 18.593C19.5332 18.5936 19.5333 18.5934 19.5338 18.5923C19.534 18.5918 19.5344 18.5911 19.5348 18.5902C19.535 18.5897 19.5353 18.5892 19.5356 18.5886C19.5357 18.5883 19.5358 18.588 19.536 18.5877C19.5361 18.5875 19.5362 18.5873 19.5362 18.5872C19.5364 18.587 19.5365 18.5867 20.4364 19.0226C21.3364 19.4586 21.3365 19.4583 21.3367 19.4581C21.3367 19.458 21.3369 19.4577 21.3369 19.4575C21.3371 19.4571 21.3373 19.4567 21.3375 19.4563C21.3379 19.4555 21.3383 19.4546 21.3388 19.4537C21.3397 19.4518 21.3407 19.4496 21.3419 19.4472C21.3441 19.4424 21.3469 19.4366 21.35 19.4298C21.3562 19.4162 21.3642 19.3987 21.3733 19.3776C21.3916 19.3355 21.4153 19.2784 21.4409 19.2095C21.4913 19.0746 21.5546 18.8804 21.5979 18.6563C21.6694 18.2861 21.7581 17.4559 21.1347 16.8398L19.7288 18.2623ZM20.8509 7.96898L15.347 7.96898L15.347 9.96898L20.8509 9.96898V7.96898ZM16.347 8.96846L16.3445 4.10493L14.3445 4.10596L14.347 8.96949L16.347 8.96846ZM16.0541 9.67608L22.3071 3.42305L20.8929 2.00884L14.6399 8.26187L16.0541 9.67608Z" fill="black"/>
</svg>
