<svg width="28" height="28" viewBox="0 0 28 28" fill="none" xmlns="http://www.w3.org/2000/svg">
<path d="M4.90005 23.1003C5.3018 22.6503 8.00087 20.5306 9.34243 19.4856C9.83103 19.105 10.4304 18.9003 11.0497 18.9003C12.5473 18.9003 15.4332 18.9003 16.938 18.9003C17.5646 18.9003 18.1699 19.1137 18.6744 19.4853C20.4066 20.7615 22.0305 21.7123 23.8 23.1003M7.00005 25.2H21C23.3196 25.2 25.2 23.3196 25.2 21V7C25.2 4.68041 23.3196 2.8 21 2.8H7.00005C4.68045 2.8 2.80005 4.68041 2.80005 7V21C2.80005 23.3196 4.68045 25.2 7.00005 25.2ZM18.0117 10.8174C18.0117 8.68062 16.2079 6.93477 14 6.93477C11.7923 6.93477 9.98841 8.68062 9.98841 10.8174C9.98841 12.9541 11.7923 14.7 14 14.7C16.2078 14.7 18.0117 12.9541 18.0117 10.8174Z" stroke="black" stroke-width="2"/>
</svg>
